<svg width="1280" height="720" viewBox="0 0 1280 720" fill="none" xmlns="http://www.w3.org/2000/svg">
  <defs>
    <linearGradient id="bgAgri" x1="86" y1="52" x2="1188" y2="672" gradientUnits="userSpaceOnUse">
      <stop stop-color="#081118"/>
      <stop offset="0.44" stop-color="#122133"/>
      <stop offset="1" stop-color="#133041"/>
    </linearGradient>
    <radialGradient id="cyanAgri" cx="0" cy="0" r="1" gradientUnits="userSpaceOnUse" gradientTransform="translate(1008 96) rotate(140) scale(420 314)">
      <stop stop-color="#5CC9D5" stop-opacity="0.72"/>
      <stop offset="1" stop-color="#5CC9D5" stop-opacity="0"/>
    </radialGradient>
    <radialGradient id="amberAgri" cx="0" cy="0" r="1" gradientUnits="userSpaceOnUse" gradientTransform="translate(224 648) rotate(-9) scale(464 294)">
      <stop stop-color="#E5B078" stop-opacity="0.62"/>
      <stop offset="1" stop-color="#E5B078" stop-opacity="0"/>
    </radialGradient>
    <linearGradient id="strokeAgri" x1="132" y1="84" x2="1118" y2="648" gradientUnits="userSpaceOnUse">
      <stop stop-color="#5CC9D5" stop-opacity="0.62"/>
      <stop offset="0.5" stop-color="#7F67FF" stop-opacity="0.44"/>
      <stop offset="1" stop-color="#E6B278" stop-opacity="0.62"/>
    </linearGradient>
    <linearGradient id="nodeLinkAgri" x1="0" y1="0" x2="1" y2="1">
      <stop stop-color="#5CC9D5"/>
      <stop offset="1" stop-color="#E6B278"/>
    </linearGradient>
  </defs>

  <rect width="1280" height="720" fill="url(#bgAgri)"/>
  <rect width="1280" height="720" fill="url(#cyanAgri)"/>
  <rect width="1280" height="720" fill="url(#amberAgri)"/>

  <rect x="120" y="76" width="1040" height="568" rx="30" fill="#0A1320" fill-opacity="0.76" stroke="url(#strokeAgri)" stroke-width="2"/>
  <rect x="120" y="76" width="1040" height="66" rx="30" fill="#0F1B2D"/>
  <circle cx="172" cy="109" r="8" fill="#5BC7D3"/>
  <circle cx="200" cy="109" r="8" fill="#7F67FF"/>
  <circle cx="228" cy="109" r="8" fill="#E6B278"/>
  <rect x="274" y="95" width="420" height="28" rx="14" fill="#15253B"/>
  <rect x="712" y="95" width="132" height="28" rx="14" fill="#15253B"/>
  <rect x="858" y="95" width="120" height="28" rx="14" fill="#15253B"/>
  <rect x="992" y="95" width="136" height="28" rx="14" fill="#15253B"/>

  <rect x="152" y="172" width="338" height="448" rx="22" fill="#101B2F" stroke="#324860"/>
  <rect x="182" y="206" width="278" height="94" rx="14" fill="#132138"/>
  <rect x="214" y="232" width="154" height="14" rx="7" fill="#F1C58B" fill-opacity="0.82"/>
  <rect x="214" y="257" width="190" height="10" rx="5" fill="#C2CBD9" fill-opacity="0.48"/>
  <rect x="182" y="320" width="278" height="270" rx="14" fill="#132138"/>

  <path d="M224 482C254 462 290 450 324 460C358 470 392 470 430 448" stroke="url(#nodeLinkAgri)" stroke-width="4.5" stroke-linecap="round"/>
  <path d="M224 516C262 500 304 494 346 502C382 508 412 520 444 540" stroke="#5CC9D5" stroke-opacity="0.62" stroke-width="4.5" stroke-linecap="round"/>
  <circle cx="244" cy="480" r="8" fill="#5CC9D5"/>
  <circle cx="324" cy="460" r="8" fill="#7F67FF"/>
  <circle cx="430" cy="448" r="8" fill="#E6B278"/>
  <circle cx="244" cy="516" r="8" fill="#5CC9D5"/>
  <circle cx="346" cy="502" r="8" fill="#7F67FF"/>
  <circle cx="444" cy="540" r="8" fill="#E6B278"/>

  <rect x="512" y="172" width="618" height="212" rx="22" fill="#0F1B2E" stroke="#334960"/>
  <rect x="546" y="206" width="280" height="146" rx="16" fill="#132138"/>
  <rect x="844" y="206" width="252" height="64" rx="12" fill="#132138"/>
  <rect x="844" y="284" width="252" height="68" rx="12" fill="#132138"/>
  <rect x="580" y="236" width="126" height="12" rx="6" fill="#F4F1E8" fill-opacity="0.86"/>
  <rect x="580" y="258" width="174" height="10" rx="5" fill="#C2CBD9" fill-opacity="0.48"/>
  <rect x="580" y="278" width="156" height="10" rx="5" fill="#C2CBD9" fill-opacity="0.42"/>

  <rect x="512" y="406" width="618" height="214" rx="22" fill="#0F1B2E" stroke="#334960"/>
  <rect x="546" y="440" width="182" height="146" rx="16" fill="#132138"/>
  <rect x="744" y="440" width="182" height="146" rx="16" fill="#132138"/>
  <rect x="942" y="440" width="154" height="146" rx="16" fill="#132138"/>
  <path d="M578 522L626 482L674 506" stroke="url(#nodeLinkAgri)" stroke-width="5" stroke-linecap="round" stroke-linejoin="round"/>
  <path d="M776 520L820 468L874 516" stroke="#5CC9D5" stroke-opacity="0.66" stroke-width="5" stroke-linecap="round" stroke-linejoin="round"/>
  <circle cx="626" cy="482" r="7" fill="#5CC9D5"/>
  <circle cx="820" cy="468" r="7" fill="#7F67FF"/>
  <circle cx="874" cy="516" r="7" fill="#E6B278"/>
</svg>
