<svg width="1280" height="720" viewBox="0 0 1280 720" fill="none" xmlns="http://www.w3.org/2000/svg">
  <defs>
    <linearGradient id="bgB" x1="88" y1="76" x2="1170" y2="654" gradientUnits="userSpaceOnUse">
      <stop stop-color="#091018"/>
      <stop offset="0.44" stop-color="#101B2A"/>
      <stop offset="1" stop-color="#1A2D42"/>
    </linearGradient>
    <radialGradient id="cyanGlowB" cx="0" cy="0" r="1" gradientUnits="userSpaceOnUse" gradientTransform="translate(964 88) rotate(137) scale(420 320)">
      <stop stop-color="#57D2DE" stop-opacity="0.68"/>
      <stop offset="1" stop-color="#57D2DE" stop-opacity="0"/>
    </radialGradient>
    <radialGradient id="amberGlowB" cx="0" cy="0" r="1" gradientUnits="userSpaceOnUse" gradientTransform="translate(210 660) rotate(-8) scale(460 286)">
      <stop stop-color="#E4B077" stop-opacity="0.64"/>
      <stop offset="1" stop-color="#E4B077" stop-opacity="0"/>
    </radialGradient>
    <linearGradient id="windowStrokeB" x1="112" y1="80" x2="1110" y2="640" gradientUnits="userSpaceOnUse">
      <stop stop-color="#5ED0DC" stop-opacity="0.68"/>
      <stop offset="0.5" stop-color="#8892A9" stop-opacity="0.35"/>
      <stop offset="1" stop-color="#F1C589" stop-opacity="0.56"/>
    </linearGradient>
    <linearGradient id="chartLineB" x1="0" y1="0" x2="1" y2="1">
      <stop stop-color="#5ECBD6"/>
      <stop offset="1" stop-color="#7B67FF"/>
    </linearGradient>
  </defs>
  <rect width="1280" height="720" fill="url(#bgB)"/>
  <rect width="1280" height="720" fill="url(#cyanGlowB)"/>
  <rect width="1280" height="720" fill="url(#amberGlowB)"/>
  <rect x="110" y="68" width="1060" height="584" rx="30" fill="#0B121D" fill-opacity="0.76" stroke="url(#windowStrokeB)" stroke-width="2"/>
  <rect x="110" y="68" width="1060" height="72" rx="30" fill="#10192A"/>
  <rect x="154" y="92" width="214" height="24" rx="12" fill="#16253A"/>
  <rect x="384" y="92" width="412" height="24" rx="12" fill="#17263B" stroke="#2D415E"/>
  <rect x="810" y="92" width="132" height="24" rx="12" fill="#17263B"/>
  <rect x="958" y="92" width="164" height="24" rx="12" fill="#17263B"/>
  <rect x="146" y="170" width="302" height="208" rx="20" fill="#101A2B" stroke="#30455F"/>
  <rect x="182" y="206" width="142" height="16" rx="8" fill="#F2C489" fill-opacity="0.84"/>
  <rect x="182" y="236" width="206" height="11" rx="5.5" fill="#B8C1D2" fill-opacity="0.5"/>
  <rect x="182" y="260" width="180" height="11" rx="5.5" fill="#B8C1D2" fill-opacity="0.44"/>
  <rect x="182" y="284" width="194" height="11" rx="5.5" fill="#B8C1D2" fill-opacity="0.4"/>
  <rect x="182" y="322" width="108" height="32" rx="16" fill="#5BC9D5"/>
  <rect x="306" y="322" width="104" height="32" rx="16" fill="#1C2640" stroke="#7A67FF" stroke-opacity="0.72"/>
  <rect x="470" y="170" width="654" height="208" rx="20" fill="#0F1829" stroke="#30465F"/>
  <path d="M516 324L612 272L694 296L774 238L862 252L952 186L1038 226L1082 198" stroke="url(#chartLineB)" stroke-width="6" stroke-linecap="round" stroke-linejoin="round"/>
  <circle cx="612" cy="272" r="8" fill="#5FCED9"/>
  <circle cx="774" cy="238" r="8" fill="#7B67FF"/>
  <circle cx="952" cy="186" r="8" fill="#F1C489"/>
  <rect x="146" y="398" width="978" height="216" rx="20" fill="#0F1828" stroke="#334760"/>
  <rect x="186" y="438" width="264" height="136" rx="14" fill="#121E32"/>
  <rect x="478" y="438" width="264" height="136" rx="14" fill="#121E32"/>
  <rect x="770" y="438" width="314" height="136" rx="14" fill="#121E32"/>
  <rect x="206" y="460" width="110" height="12" rx="6" fill="#BFC6D6" fill-opacity="0.58"/>
  <rect x="206" y="484" width="84" height="10" rx="5" fill="#BFC6D6" fill-opacity="0.42"/>
  <rect x="206" y="505" width="124" height="10" rx="5" fill="#BFC6D6" fill-opacity="0.4"/>
  <rect x="502" y="460" width="110" height="12" rx="6" fill="#BFC6D6" fill-opacity="0.58"/>
  <rect x="502" y="484" width="84" height="10" rx="5" fill="#BFC6D6" fill-opacity="0.42"/>
  <rect x="502" y="505" width="124" height="10" rx="5" fill="#BFC6D6" fill-opacity="0.4"/>
  <rect x="794" y="460" width="148" height="12" rx="6" fill="#BFC6D6" fill-opacity="0.58"/>
  <rect x="794" y="484" width="196" height="10" rx="5" fill="#BFC6D6" fill-opacity="0.42"/>
  <rect x="794" y="505" width="172" height="10" rx="5" fill="#BFC6D6" fill-opacity="0.4"/>
</svg>
