<svg width="1280" height="720" viewBox="0 0 1280 720" fill="none" xmlns="http://www.w3.org/2000/svg">
  <defs>
    <linearGradient id="bgA" x1="80" y1="44" x2="1188" y2="680" gradientUnits="userSpaceOnUse">
      <stop stop-color="#0C0E15"/>
      <stop offset="0.45" stop-color="#161B2B"/>
      <stop offset="1" stop-color="#13253A"/>
    </linearGradient>
    <radialGradient id="goldGlowA" cx="0" cy="0" r="1" gradientUnits="userSpaceOnUse" gradientTransform="translate(1050 98) rotate(131) scale(410 304)">
      <stop stop-color="#F4BE82" stop-opacity="0.75"/>
      <stop offset="1" stop-color="#F4BE82" stop-opacity="0"/>
    </radialGradient>
    <radialGradient id="violetGlowA" cx="0" cy="0" r="1" gradientUnits="userSpaceOnUse" gradientTransform="translate(186 612) rotate(10) scale(536 300)">
      <stop stop-color="#7F67FF" stop-opacity="0.63"/>
      <stop offset="1" stop-color="#7F67FF" stop-opacity="0"/>
    </radialGradient>
    <linearGradient id="frameStrokeA" x1="185" y1="94" x2="1085" y2="640" gradientUnits="userSpaceOnUse">
      <stop stop-color="#F3C790" stop-opacity="0.62"/>
      <stop offset="0.52" stop-color="#8D75FF" stop-opacity="0.48"/>
      <stop offset="1" stop-color="#5CC8D4" stop-opacity="0.62"/>
    </linearGradient>
    <linearGradient id="heroLightA" x1="560" y1="200" x2="1018" y2="490" gradientUnits="userSpaceOnUse">
      <stop stop-color="#312B63" stop-opacity="0.4"/>
      <stop offset="1" stop-color="#2C8895" stop-opacity="0.16"/>
    </linearGradient>
  </defs>
  <rect width="1280" height="720" fill="url(#bgA)"/>
  <rect width="1280" height="720" fill="url(#goldGlowA)"/>
  <rect width="1280" height="720" fill="url(#violetGlowA)"/>
  <rect x="130" y="78" width="1020" height="564" rx="26" fill="#0B0F19" fill-opacity="0.74" stroke="url(#frameStrokeA)" stroke-width="2"/>
  <rect x="130" y="78" width="1020" height="66" rx="26" fill="#101625"/>
  <circle cx="182" cy="111" r="9" fill="#5BC4D0"/>
  <circle cx="212" cy="111" r="9" fill="#7D65FF"/>
  <circle cx="242" cy="111" r="9" fill="#DCA86D"/>
  <rect x="286" y="96" width="534" height="30" rx="15" fill="#151C2E" stroke="#26344F"/>
  <rect x="832" y="96" width="132" height="30" rx="15" fill="#182136"/>
  <rect x="130" y="144" width="194" height="498" fill="#0B1220"/>
  <rect x="164" y="191" width="124" height="14" rx="7" fill="#F4BE82" fill-opacity="0.82"/>
  <rect x="164" y="222" width="104" height="10" rx="5" fill="#B6B9C6" fill-opacity="0.52"/>
  <rect x="164" y="256" width="128" height="10" rx="5" fill="#B6B9C6" fill-opacity="0.48"/>
  <rect x="164" y="290" width="98" height="10" rx="5" fill="#B6B9C6" fill-opacity="0.45"/>
  <rect x="164" y="324" width="136" height="10" rx="5" fill="#B6B9C6" fill-opacity="0.4"/>
  <rect x="350" y="178" width="760" height="430" rx="20" fill="url(#heroLightA)" stroke="#2B3350"/>
  <rect x="396" y="228" width="340" height="20" rx="10" fill="#F5F1E8" fill-opacity="0.92"/>
  <rect x="396" y="262" width="300" height="14" rx="7" fill="#CFD3DF" fill-opacity="0.62"/>
  <rect x="396" y="288" width="280" height="14" rx="7" fill="#CFD3DF" fill-opacity="0.58"/>
  <rect x="396" y="334" width="150" height="38" rx="19" fill="#D7AA71"/>
  <rect x="562" y="334" width="184" height="38" rx="19" fill="#1B2340" stroke="#7E65FF" stroke-opacity="0.68"/>
  <rect x="782" y="228" width="278" height="330" rx="18" fill="#0E1526" stroke="#2F3D5A"/>
  <circle cx="922" cy="332" r="94" fill="#121B30" stroke="#7E65FF" stroke-opacity="0.56"/>
  <circle cx="922" cy="332" r="68" fill="#0E1626" stroke="#55C5D0" stroke-opacity="0.46"/>
  <circle cx="922" cy="332" r="43" fill="#EAB67D" fill-opacity="0.46"/>
  <rect x="824" y="460" width="194" height="14" rx="7" fill="#B7BCC9" fill-opacity="0.58"/>
  <rect x="824" y="484" width="162" height="12" rx="6" fill="#B7BCC9" fill-opacity="0.45"/>
  <rect x="824" y="506" width="174" height="12" rx="6" fill="#B7BCC9" fill-opacity="0.42"/>
</svg>
